<mxfile host="app.diagrams.net" modified="2020-11-16T09:16:39.079Z" agent="5.0 (Macintosh; Intel Mac OS X 10_14_6) AppleWebKit/537.36 (KHTML, like Gecko) Chrome/86.0.4240.198 Safari/537.36" etag="-xwhVvvrIWckIGuQS6eV" version="13.9.7" type="github">
  <diagram id="E6UDTMIK5SfPo9EAQP29" name="Page-1">
    <mxGraphModel dx="2355" dy="1560" grid="1" gridSize="10" guides="1" tooltips="1" connect="1" arrows="1" fold="1" page="1" pageScale="1" pageWidth="1169" pageHeight="826" math="0" shadow="0">
      <root>
        <mxCell id="0" />
        <mxCell id="1" parent="0" />
        <mxCell id="xRANGXOFlQ8uoqTKwq2T-1" value="" style="ellipse;html=1;shape=startState;fillColor=#000000;strokeColor=#ff0000;" parent="1" vertex="1">
          <mxGeometry x="410" y="-636" width="30" height="30" as="geometry" />
        </mxCell>
        <mxCell id="xRANGXOFlQ8uoqTKwq2T-8" value="" style="edgeStyle=orthogonalEdgeStyle;rounded=0;orthogonalLoop=1;jettySize=auto;html=1;" parent="1" target="xRANGXOFlQ8uoqTKwq2T-7" edge="1">
          <mxGeometry relative="1" as="geometry">
            <mxPoint x="430" y="-613" as="sourcePoint" />
          </mxGeometry>
        </mxCell>
        <mxCell id="xRANGXOFlQ8uoqTKwq2T-10" value="" style="edgeStyle=orthogonalEdgeStyle;rounded=0;orthogonalLoop=1;jettySize=auto;html=1;" parent="1" target="xRANGXOFlQ8uoqTKwq2T-9" edge="1">
          <mxGeometry relative="1" as="geometry">
            <mxPoint x="430" y="-270" as="sourcePoint" />
          </mxGeometry>
        </mxCell>
        <mxCell id="xRANGXOFlQ8uoqTKwq2T-15" style="edgeStyle=orthogonalEdgeStyle;rounded=0;orthogonalLoop=1;jettySize=auto;html=1;entryX=0;entryY=0.5;entryDx=0;entryDy=0;exitX=0.5;exitY=1;exitDx=0;exitDy=0;" parent="1" source="ouW_fzpy-MnYri31NkzG-9" target="xRANGXOFlQ8uoqTKwq2T-11" edge="1">
          <mxGeometry relative="1" as="geometry">
            <mxPoint x="430" y="-270" as="sourcePoint" />
            <Array as="points">
              <mxPoint x="430" y="-300" />
              <mxPoint x="430" y="-10" />
              <mxPoint x="653" y="-10" />
              <mxPoint x="653" y="25" />
            </Array>
          </mxGeometry>
        </mxCell>
        <mxCell id="ouW_fzpy-MnYri31NkzG-12" style="edgeStyle=orthogonalEdgeStyle;rounded=0;orthogonalLoop=1;jettySize=auto;html=1;entryX=0.5;entryY=0;entryDx=0;entryDy=0;" edge="1" parent="1" target="ouW_fzpy-MnYri31NkzG-9">
          <mxGeometry relative="1" as="geometry">
            <mxPoint x="430" y="-310" as="targetPoint" />
            <mxPoint x="430" y="-410" as="sourcePoint" />
          </mxGeometry>
        </mxCell>
        <mxCell id="xRANGXOFlQ8uoqTKwq2T-7" value="配置成功" style="html=1;" parent="1" vertex="1">
          <mxGeometry x="375" y="-463" width="110" height="50" as="geometry" />
        </mxCell>
        <mxCell id="xRANGXOFlQ8uoqTKwq2T-19" value="" style="edgeStyle=orthogonalEdgeStyle;rounded=0;orthogonalLoop=1;jettySize=auto;html=1;" parent="1" source="xRANGXOFlQ8uoqTKwq2T-9" target="xRANGXOFlQ8uoqTKwq2T-18" edge="1">
          <mxGeometry relative="1" as="geometry" />
        </mxCell>
        <mxCell id="xRANGXOFlQ8uoqTKwq2T-9" value="创建成功" style="html=1;" parent="1" vertex="1">
          <mxGeometry x="375" y="180" width="110" height="50" as="geometry" />
        </mxCell>
        <mxCell id="pfTwy-6_xwasAA1-WFlj-82" style="edgeStyle=orthogonalEdgeStyle;rounded=0;orthogonalLoop=1;jettySize=auto;html=1;entryX=1;entryY=0.75;entryDx=0;entryDy=0;" parent="1" source="xRANGXOFlQ8uoqTKwq2T-11" target="xRANGXOFlQ8uoqTKwq2T-11" edge="1">
          <mxGeometry relative="1" as="geometry">
            <mxPoint x="860" y="-100" as="targetPoint" />
            <Array as="points">
              <mxPoint x="875" y="-70" />
              <mxPoint x="1030" y="-70" />
              <mxPoint x="1030" y="38" />
            </Array>
          </mxGeometry>
        </mxCell>
        <mxCell id="pfTwy-6_xwasAA1-WFlj-83" style="edgeStyle=orthogonalEdgeStyle;rounded=0;orthogonalLoop=1;jettySize=auto;html=1;entryX=1;entryY=0.5;entryDx=0;entryDy=0;" parent="1" source="xRANGXOFlQ8uoqTKwq2T-11" target="xRANGXOFlQ8uoqTKwq2T-9" edge="1">
          <mxGeometry relative="1" as="geometry">
            <Array as="points">
              <mxPoint x="875" y="205" />
            </Array>
          </mxGeometry>
        </mxCell>
        <mxCell id="xRANGXOFlQ8uoqTKwq2T-11" value="创建失败" style="html=1;" parent="1" vertex="1">
          <mxGeometry x="820" width="110" height="50" as="geometry" />
        </mxCell>
        <mxCell id="xRANGXOFlQ8uoqTKwq2T-22" style="edgeStyle=orthogonalEdgeStyle;rounded=0;orthogonalLoop=1;jettySize=auto;html=1;entryX=0;entryY=0.5;entryDx=0;entryDy=0;" parent="1" source="xRANGXOFlQ8uoqTKwq2T-18" target="xRANGXOFlQ8uoqTKwq2T-20" edge="1" treatAsSingle="0">
          <mxGeometry relative="1" as="geometry" />
        </mxCell>
        <mxCell id="pfTwy-6_xwasAA1-WFlj-45" value="检查全量dump文件失败" style="edgeLabel;html=1;align=center;verticalAlign=middle;resizable=0;points=[];" parent="xRANGXOFlQ8uoqTKwq2T-22" vertex="1" connectable="0">
          <mxGeometry x="-0.1164" y="-2" relative="1" as="geometry">
            <mxPoint as="offset" />
          </mxGeometry>
        </mxCell>
        <mxCell id="xRANGXOFlQ8uoqTKwq2T-24" value="" style="edgeStyle=orthogonalEdgeStyle;rounded=0;orthogonalLoop=1;jettySize=auto;html=1;" parent="1" source="xRANGXOFlQ8uoqTKwq2T-18" target="xRANGXOFlQ8uoqTKwq2T-23" edge="1">
          <mxGeometry relative="1" as="geometry" />
        </mxCell>
        <mxCell id="pfTwy-6_xwasAA1-WFlj-31" value="" style="edgeStyle=orthogonalEdgeStyle;rounded=0;orthogonalLoop=1;jettySize=auto;html=1;" parent="1" source="xRANGXOFlQ8uoqTKwq2T-18" target="pfTwy-6_xwasAA1-WFlj-30" edge="1" treatAsSingle="0">
          <mxGeometry relative="1" as="geometry" />
        </mxCell>
        <mxCell id="pfTwy-6_xwasAA1-WFlj-43" value="备份offset(实时)失败" style="edgeLabel;html=1;align=center;verticalAlign=middle;resizable=0;points=[];" parent="pfTwy-6_xwasAA1-WFlj-31" vertex="1" connectable="0">
          <mxGeometry x="-0.2291" y="-2" relative="1" as="geometry">
            <mxPoint as="offset" />
          </mxGeometry>
        </mxCell>
        <mxCell id="xRANGXOFlQ8uoqTKwq2T-18" value="全量任务启动" style="html=1;" parent="1" vertex="1">
          <mxGeometry x="375" y="420" width="110" height="50" as="geometry" />
        </mxCell>
        <mxCell id="pfTwy-6_xwasAA1-WFlj-65" style="edgeStyle=orthogonalEdgeStyle;rounded=0;orthogonalLoop=1;jettySize=auto;html=1;" parent="1" source="xRANGXOFlQ8uoqTKwq2T-20" edge="1">
          <mxGeometry relative="1" as="geometry">
            <mxPoint x="470" y="470" as="targetPoint" />
            <Array as="points">
              <mxPoint x="875" y="540" />
              <mxPoint x="500" y="540" />
              <mxPoint x="500" y="470" />
            </Array>
          </mxGeometry>
        </mxCell>
        <mxCell id="xRANGXOFlQ8uoqTKwq2T-20" value="全量同步失败" style="html=1;" parent="1" vertex="1">
          <mxGeometry x="820" y="420" width="110" height="50" as="geometry" />
        </mxCell>
        <mxCell id="xRANGXOFlQ8uoqTKwq2T-26" value="" style="edgeStyle=orthogonalEdgeStyle;rounded=0;orthogonalLoop=1;jettySize=auto;html=1;" parent="1" source="xRANGXOFlQ8uoqTKwq2T-23" target="xRANGXOFlQ8uoqTKwq2T-25" edge="1" treatAsSingle="0">
          <mxGeometry relative="1" as="geometry" />
        </mxCell>
        <mxCell id="pfTwy-6_xwasAA1-WFlj-47" value="全量索引完之后,加载索引前出异常(如solr的livenodes获取不到)" style="edgeLabel;html=1;align=center;verticalAlign=middle;resizable=0;points=[];" parent="xRANGXOFlQ8uoqTKwq2T-26" vertex="1" connectable="0">
          <mxGeometry x="-0.0328" y="1" relative="1" as="geometry">
            <mxPoint as="offset" />
          </mxGeometry>
        </mxCell>
        <mxCell id="xRANGXOFlQ8uoqTKwq2T-28" value="" style="edgeStyle=orthogonalEdgeStyle;rounded=0;orthogonalLoop=1;jettySize=auto;html=1;" parent="1" source="xRANGXOFlQ8uoqTKwq2T-23" target="xRANGXOFlQ8uoqTKwq2T-27" edge="1" treatAsSingle="0">
          <mxGeometry relative="1" as="geometry" />
        </mxCell>
        <mxCell id="pfTwy-6_xwasAA1-WFlj-48" value="向bos-solr发送load请求,solr开始load索引" style="edgeLabel;html=1;align=center;verticalAlign=middle;resizable=0;points=[];" parent="xRANGXOFlQ8uoqTKwq2T-28" vertex="1" connectable="0">
          <mxGeometry x="-0.1" y="-3" relative="1" as="geometry">
            <mxPoint as="offset" />
          </mxGeometry>
        </mxCell>
        <mxCell id="xRANGXOFlQ8uoqTKwq2T-23" value="离线全量索引进行中" style="html=1;" parent="1" vertex="1">
          <mxGeometry x="375" y="660" width="110" height="50" as="geometry" />
        </mxCell>
        <mxCell id="pfTwy-6_xwasAA1-WFlj-63" style="edgeStyle=orthogonalEdgeStyle;rounded=0;orthogonalLoop=1;jettySize=auto;html=1;entryX=0.836;entryY=1.04;entryDx=0;entryDy=0;entryPerimeter=0;" parent="1" source="xRANGXOFlQ8uoqTKwq2T-25" target="xRANGXOFlQ8uoqTKwq2T-18" edge="1">
          <mxGeometry relative="1" as="geometry">
            <Array as="points">
              <mxPoint x="875" y="540" />
              <mxPoint x="500" y="540" />
              <mxPoint x="500" y="472" />
            </Array>
          </mxGeometry>
        </mxCell>
        <mxCell id="xRANGXOFlQ8uoqTKwq2T-25" value="全量同步失败" style="html=1;" parent="1" vertex="1">
          <mxGeometry x="820" y="660" width="110" height="50" as="geometry" />
        </mxCell>
        <mxCell id="pfTwy-6_xwasAA1-WFlj-2" value="" style="edgeStyle=orthogonalEdgeStyle;rounded=0;orthogonalLoop=1;jettySize=auto;html=1;" parent="1" source="xRANGXOFlQ8uoqTKwq2T-27" target="pfTwy-6_xwasAA1-WFlj-1" edge="1" treatAsSingle="0">
          <mxGeometry relative="1" as="geometry" />
        </mxCell>
        <mxCell id="pfTwy-6_xwasAA1-WFlj-49" value="solr在load索引完成之后,索引校验失败(如果有校验)" style="edgeLabel;html=1;align=center;verticalAlign=middle;resizable=0;points=[];" parent="pfTwy-6_xwasAA1-WFlj-2" vertex="1" connectable="0">
          <mxGeometry x="-0.003" y="1" relative="1" as="geometry">
            <mxPoint as="offset" />
          </mxGeometry>
        </mxCell>
        <mxCell id="pfTwy-6_xwasAA1-WFlj-4" value="" style="edgeStyle=orthogonalEdgeStyle;rounded=0;orthogonalLoop=1;jettySize=auto;html=1;" parent="1" source="xRANGXOFlQ8uoqTKwq2T-27" target="pfTwy-6_xwasAA1-WFlj-3" edge="1" treatAsSingle="0">
          <mxGeometry relative="1" as="geometry" />
        </mxCell>
        <mxCell id="pfTwy-6_xwasAA1-WFlj-50" value="solr在load完成之后,创建新的collection成功" style="edgeLabel;html=1;align=center;verticalAlign=middle;resizable=0;points=[];" parent="pfTwy-6_xwasAA1-WFlj-4" vertex="1" connectable="0">
          <mxGeometry x="-0.25" y="-2" relative="1" as="geometry">
            <mxPoint as="offset" />
          </mxGeometry>
        </mxCell>
        <mxCell id="xRANGXOFlQ8uoqTKwq2T-27" value="离线全量加载中" style="html=1;" parent="1" vertex="1">
          <mxGeometry x="375" y="930" width="110" height="50" as="geometry" />
        </mxCell>
        <mxCell id="pfTwy-6_xwasAA1-WFlj-64" style="edgeStyle=orthogonalEdgeStyle;rounded=0;orthogonalLoop=1;jettySize=auto;html=1;entryX=0.836;entryY=1.04;entryDx=0;entryDy=0;entryPerimeter=0;" parent="1" edge="1">
          <mxGeometry relative="1" as="geometry">
            <mxPoint x="875" y="929" as="sourcePoint" />
            <mxPoint x="466.96000000000004" y="471" as="targetPoint" />
            <Array as="points">
              <mxPoint x="875" y="759" />
              <mxPoint x="500" y="759" />
              <mxPoint x="500" y="471" />
            </Array>
          </mxGeometry>
        </mxCell>
        <mxCell id="pfTwy-6_xwasAA1-WFlj-1" value="全量同步失败" style="html=1;" parent="1" vertex="1">
          <mxGeometry x="820" y="930" width="110" height="50" as="geometry" />
        </mxCell>
        <mxCell id="pfTwy-6_xwasAA1-WFlj-6" value="" style="edgeStyle=orthogonalEdgeStyle;rounded=0;orthogonalLoop=1;jettySize=auto;html=1;" parent="1" source="pfTwy-6_xwasAA1-WFlj-3" target="pfTwy-6_xwasAA1-WFlj-5" edge="1">
          <mxGeometry relative="1" as="geometry" />
        </mxCell>
        <mxCell id="pfTwy-6_xwasAA1-WFlj-69" style="edgeStyle=orthogonalEdgeStyle;rounded=0;orthogonalLoop=1;jettySize=auto;html=1;entryX=0.155;entryY=1;entryDx=0;entryDy=0;entryPerimeter=0;" parent="1" source="pfTwy-6_xwasAA1-WFlj-3" target="xRANGXOFlQ8uoqTKwq2T-18" edge="1">
          <mxGeometry relative="1" as="geometry">
            <Array as="points">
              <mxPoint x="170" y="1205" />
              <mxPoint x="170" y="540" />
              <mxPoint x="392" y="540" />
            </Array>
          </mxGeometry>
        </mxCell>
        <mxCell id="pfTwy-6_xwasAA1-WFlj-3" value="全量同步成功" style="html=1;" parent="1" vertex="1">
          <mxGeometry x="375" y="1180" width="110" height="50" as="geometry" />
        </mxCell>
        <mxCell id="pfTwy-6_xwasAA1-WFlj-9" value="" style="edgeStyle=orthogonalEdgeStyle;rounded=0;orthogonalLoop=1;jettySize=auto;html=1;entryX=0;entryY=0.5;entryDx=0;entryDy=0;" parent="1" source="pfTwy-6_xwasAA1-WFlj-5" target="pfTwy-6_xwasAA1-WFlj-11" edge="1">
          <mxGeometry relative="1" as="geometry">
            <mxPoint x="530" y="1330" as="targetPoint" />
          </mxGeometry>
        </mxCell>
        <mxCell id="pfTwy-6_xwasAA1-WFlj-18" value="" style="edgeStyle=orthogonalEdgeStyle;rounded=0;orthogonalLoop=1;jettySize=auto;html=1;entryX=0.5;entryY=0;entryDx=0;entryDy=0;" parent="1" source="pfTwy-6_xwasAA1-WFlj-5" target="pfTwy-6_xwasAA1-WFlj-19" edge="1">
          <mxGeometry relative="1" as="geometry">
            <mxPoint x="430" y="1150" as="targetPoint" />
          </mxGeometry>
        </mxCell>
        <mxCell id="pfTwy-6_xwasAA1-WFlj-5" value="是否实时?" style="rhombus;whiteSpace=wrap;html=1;" parent="1" vertex="1">
          <mxGeometry x="390" y="1290" width="80" height="80" as="geometry" />
        </mxCell>
        <mxCell id="pfTwy-6_xwasAA1-WFlj-10" value="否" style="text;html=1;align=center;verticalAlign=middle;resizable=0;points=[];autosize=1;" parent="1" vertex="1">
          <mxGeometry x="475" y="1305" width="30" height="20" as="geometry" />
        </mxCell>
        <mxCell id="pfTwy-6_xwasAA1-WFlj-11" value="" style="ellipse;html=1;shape=endState;fillColor=#000000;strokeColor=#ff0000;" parent="1" vertex="1">
          <mxGeometry x="680" y="1315" width="30" height="30" as="geometry" />
        </mxCell>
        <mxCell id="pfTwy-6_xwasAA1-WFlj-23" value="" style="edgeStyle=orthogonalEdgeStyle;rounded=0;orthogonalLoop=1;jettySize=auto;html=1;" parent="1" source="pfTwy-6_xwasAA1-WFlj-19" target="pfTwy-6_xwasAA1-WFlj-22" edge="1" treatAsSingle="0">
          <mxGeometry relative="1" as="geometry" />
        </mxCell>
        <mxCell id="pfTwy-6_xwasAA1-WFlj-52" value="增量提交成功" style="edgeLabel;html=1;align=center;verticalAlign=middle;resizable=0;points=[];" parent="pfTwy-6_xwasAA1-WFlj-23" vertex="1" connectable="0">
          <mxGeometry x="-0.0762" y="-4" relative="1" as="geometry">
            <mxPoint as="offset" />
          </mxGeometry>
        </mxCell>
        <mxCell id="pfTwy-6_xwasAA1-WFlj-25" value="" style="edgeStyle=orthogonalEdgeStyle;rounded=0;orthogonalLoop=1;jettySize=auto;html=1;" parent="1" source="pfTwy-6_xwasAA1-WFlj-19" target="pfTwy-6_xwasAA1-WFlj-24" edge="1" treatAsSingle="0">
          <mxGeometry relative="1" as="geometry" />
        </mxCell>
        <mxCell id="pfTwy-6_xwasAA1-WFlj-51" value="增量提交失败" style="edgeLabel;html=1;align=center;verticalAlign=middle;resizable=0;points=[];" parent="pfTwy-6_xwasAA1-WFlj-25" vertex="1" connectable="0">
          <mxGeometry x="-0.1284" relative="1" as="geometry">
            <mxPoint as="offset" />
          </mxGeometry>
        </mxCell>
        <mxCell id="pfTwy-6_xwasAA1-WFlj-77" style="edgeStyle=orthogonalEdgeStyle;rounded=0;orthogonalLoop=1;jettySize=auto;html=1;" parent="1" edge="1">
          <mxGeometry relative="1" as="geometry">
            <mxPoint x="376" y="1465" as="sourcePoint" />
            <mxPoint x="391" y="470" as="targetPoint" />
            <Array as="points">
              <mxPoint x="221" y="1465" />
              <mxPoint x="221" y="480" />
              <mxPoint x="391" y="480" />
            </Array>
          </mxGeometry>
        </mxCell>
        <mxCell id="pfTwy-6_xwasAA1-WFlj-19" value="增量任务提交中" style="html=1;" parent="1" vertex="1">
          <mxGeometry x="375" y="1440" width="110" height="50" as="geometry" />
        </mxCell>
        <mxCell id="pfTwy-6_xwasAA1-WFlj-21" value="是" style="text;html=1;align=center;verticalAlign=middle;resizable=0;points=[];autosize=1;" parent="1" vertex="1">
          <mxGeometry x="440" y="1400" width="30" height="20" as="geometry" />
        </mxCell>
        <mxCell id="pfTwy-6_xwasAA1-WFlj-27" value="" style="edgeStyle=orthogonalEdgeStyle;rounded=0;orthogonalLoop=1;jettySize=auto;html=1;" parent="1" source="pfTwy-6_xwasAA1-WFlj-22" target="pfTwy-6_xwasAA1-WFlj-26" edge="1">
          <mxGeometry relative="1" as="geometry" />
        </mxCell>
        <mxCell id="pfTwy-6_xwasAA1-WFlj-29" value="" style="edgeStyle=orthogonalEdgeStyle;rounded=0;orthogonalLoop=1;jettySize=auto;html=1;" parent="1" source="pfTwy-6_xwasAA1-WFlj-22" target="pfTwy-6_xwasAA1-WFlj-28" edge="1" treatAsSingle="0">
          <mxGeometry relative="1" as="geometry" />
        </mxCell>
        <mxCell id="pfTwy-6_xwasAA1-WFlj-53" value="offset无法追上或追上之后收尾工作发生异常" style="edgeLabel;html=1;align=center;verticalAlign=middle;resizable=0;points=[];" parent="pfTwy-6_xwasAA1-WFlj-29" vertex="1" connectable="0">
          <mxGeometry x="-0.1821" y="4" relative="1" as="geometry">
            <mxPoint as="offset" />
          </mxGeometry>
        </mxCell>
        <mxCell id="pfTwy-6_xwasAA1-WFlj-22" value="增量同步中" style="html=1;" parent="1" vertex="1">
          <mxGeometry x="375" y="1700" width="110" height="50" as="geometry" />
        </mxCell>
        <mxCell id="pfTwy-6_xwasAA1-WFlj-71" style="edgeStyle=orthogonalEdgeStyle;rounded=0;orthogonalLoop=1;jettySize=auto;html=1;entryX=0.75;entryY=1;entryDx=0;entryDy=0;" parent="1" source="pfTwy-6_xwasAA1-WFlj-24" target="xRANGXOFlQ8uoqTKwq2T-18" edge="1">
          <mxGeometry relative="1" as="geometry">
            <Array as="points">
              <mxPoint x="875" y="1240" />
              <mxPoint x="550" y="1240" />
              <mxPoint x="550" y="470" />
            </Array>
          </mxGeometry>
        </mxCell>
        <mxCell id="pfTwy-6_xwasAA1-WFlj-24" value="增量同步失败" style="html=1;" parent="1" vertex="1">
          <mxGeometry x="820" y="1440" width="110" height="50" as="geometry" />
        </mxCell>
        <mxCell id="pfTwy-6_xwasAA1-WFlj-33" value="" style="edgeStyle=orthogonalEdgeStyle;rounded=0;orthogonalLoop=1;jettySize=auto;html=1;" parent="1" source="pfTwy-6_xwasAA1-WFlj-26" target="pfTwy-6_xwasAA1-WFlj-32" edge="1">
          <mxGeometry relative="1" as="geometry" />
        </mxCell>
        <mxCell id="pfTwy-6_xwasAA1-WFlj-35" value="" style="edgeStyle=orthogonalEdgeStyle;rounded=0;orthogonalLoop=1;jettySize=auto;html=1;entryX=0.5;entryY=0;entryDx=0;entryDy=0;" parent="1" source="pfTwy-6_xwasAA1-WFlj-26" target="pfTwy-6_xwasAA1-WFlj-36" edge="1">
          <mxGeometry relative="1" as="geometry">
            <mxPoint x="430" y="1560" as="targetPoint" />
          </mxGeometry>
        </mxCell>
        <mxCell id="pfTwy-6_xwasAA1-WFlj-75" style="edgeStyle=orthogonalEdgeStyle;rounded=0;orthogonalLoop=1;jettySize=auto;html=1;entryX=0;entryY=0.5;entryDx=0;entryDy=0;" parent="1" source="pfTwy-6_xwasAA1-WFlj-26" target="xRANGXOFlQ8uoqTKwq2T-18" edge="1">
          <mxGeometry relative="1" as="geometry">
            <Array as="points">
              <mxPoint x="120" y="1965" />
              <mxPoint x="120" y="460" />
              <mxPoint x="350" y="460" />
              <mxPoint x="350" y="445" />
            </Array>
          </mxGeometry>
        </mxCell>
        <mxCell id="pfTwy-6_xwasAA1-WFlj-26" value="增量同步成功" style="html=1;" parent="1" vertex="1">
          <mxGeometry x="375" y="1940" width="110" height="50" as="geometry" />
        </mxCell>
        <mxCell id="pfTwy-6_xwasAA1-WFlj-59" style="edgeStyle=orthogonalEdgeStyle;rounded=0;orthogonalLoop=1;jettySize=auto;html=1;entryX=0.855;entryY=0.98;entryDx=0;entryDy=0;entryPerimeter=0;" parent="1" source="pfTwy-6_xwasAA1-WFlj-28" target="pfTwy-6_xwasAA1-WFlj-19" edge="1" treatAsSingle="0">
          <mxGeometry relative="1" as="geometry">
            <Array as="points">
              <mxPoint x="875" y="1550" />
              <mxPoint x="469" y="1550" />
            </Array>
          </mxGeometry>
        </mxCell>
        <mxCell id="pfTwy-6_xwasAA1-WFlj-60" value="&lt;font color=&quot;#ff0000&quot;&gt;用户点击启动增量&lt;/font&gt;" style="edgeLabel;html=1;align=center;verticalAlign=middle;resizable=0;points=[];" parent="pfTwy-6_xwasAA1-WFlj-59" vertex="1" connectable="0">
          <mxGeometry x="0.0083" y="2" relative="1" as="geometry">
            <mxPoint as="offset" />
          </mxGeometry>
        </mxCell>
        <mxCell id="pfTwy-6_xwasAA1-WFlj-28" value="增量同步失败" style="html=1;" parent="1" vertex="1">
          <mxGeometry x="820" y="1700" width="110" height="50" as="geometry" />
        </mxCell>
        <mxCell id="pfTwy-6_xwasAA1-WFlj-73" style="edgeStyle=orthogonalEdgeStyle;rounded=0;orthogonalLoop=1;jettySize=auto;html=1;entryX=0.364;entryY=-0.02;entryDx=0;entryDy=0;entryPerimeter=0;" parent="1" source="pfTwy-6_xwasAA1-WFlj-30" target="xRANGXOFlQ8uoqTKwq2T-18" edge="1">
          <mxGeometry relative="1" as="geometry">
            <Array as="points">
              <mxPoint x="45" y="320" />
              <mxPoint x="415" y="320" />
            </Array>
          </mxGeometry>
        </mxCell>
        <mxCell id="pfTwy-6_xwasAA1-WFlj-30" value="备份offset失败" style="html=1;" parent="1" vertex="1">
          <mxGeometry x="-10" y="420" width="110" height="50" as="geometry" />
        </mxCell>
        <mxCell id="pfTwy-6_xwasAA1-WFlj-61" style="edgeStyle=orthogonalEdgeStyle;rounded=0;orthogonalLoop=1;jettySize=auto;html=1;entryX=0.75;entryY=1;entryDx=0;entryDy=0;" parent="1" source="pfTwy-6_xwasAA1-WFlj-32" target="pfTwy-6_xwasAA1-WFlj-19" edge="1">
          <mxGeometry relative="1" as="geometry">
            <Array as="points">
              <mxPoint x="875" y="1810" />
              <mxPoint x="510" y="1810" />
              <mxPoint x="510" y="1560" />
              <mxPoint x="458" y="1560" />
            </Array>
          </mxGeometry>
        </mxCell>
        <mxCell id="pfTwy-6_xwasAA1-WFlj-32" value="增量同步暂停" style="html=1;" parent="1" vertex="1">
          <mxGeometry x="820" y="1940" width="110" height="50" as="geometry" />
        </mxCell>
        <mxCell id="pfTwy-6_xwasAA1-WFlj-36" value="" style="ellipse;html=1;shape=endState;fillColor=#000000;strokeColor=#ff0000;" parent="1" vertex="1">
          <mxGeometry x="415" y="2120" width="30" height="30" as="geometry" />
        </mxCell>
        <mxCell id="pfTwy-6_xwasAA1-WFlj-40" value="&lt;font color=&quot;#ff0000&quot;&gt;用户配置schema信息,全量信息&lt;/font&gt;" style="text;html=1;align=center;verticalAlign=middle;resizable=0;points=[];autosize=1;" parent="1" vertex="1">
          <mxGeometry x="350" y="-563" width="180" height="20" as="geometry" />
        </mxCell>
        <mxCell id="pfTwy-6_xwasAA1-WFlj-41" value="&lt;font color=&quot;#ff0000&quot;&gt;用户点击激活&lt;/font&gt;,&lt;br&gt;&amp;nbsp; &amp;nbsp; &amp;nbsp; &amp;nbsp; &amp;nbsp; &amp;nbsp; &amp;nbsp;执行操作:上传solr配置文件,创建collection失败" style="text;html=1;align=center;verticalAlign=middle;resizable=0;points=[];autosize=1;" parent="1" vertex="1">
          <mxGeometry x="460" y="5" width="300" height="30" as="geometry" />
        </mxCell>
        <mxCell id="pfTwy-6_xwasAA1-WFlj-42" value="&lt;br&gt;&lt;span style=&quot;color: rgb(255 , 0 , 0)&quot;&gt;用户点击激活,&lt;br&gt;&lt;/span&gt;上传solr配置文件或者创建collection成功" style="text;html=1;align=center;verticalAlign=middle;resizable=0;points=[];autosize=1;" parent="1" vertex="1">
          <mxGeometry x="325" y="75" width="230" height="50" as="geometry" />
        </mxCell>
        <mxCell id="pfTwy-6_xwasAA1-WFlj-46" value="提交全量任务" style="text;html=1;align=center;verticalAlign=middle;resizable=0;points=[];autosize=1;" parent="1" vertex="1">
          <mxGeometry x="395" y="550" width="90" height="20" as="geometry" />
        </mxCell>
        <mxCell id="pfTwy-6_xwasAA1-WFlj-54" value="offset追上,收尾工作顺利进行" style="text;html=1;align=center;verticalAlign=middle;resizable=0;points=[];autosize=1;" parent="1" vertex="1">
          <mxGeometry x="335" y="1820" width="170" height="20" as="geometry" />
        </mxCell>
        <mxCell id="pfTwy-6_xwasAA1-WFlj-55" value="在增量同步成功之后,&lt;font color=&quot;#ff0000&quot;&gt;用户点击暂停增量&lt;/font&gt;" style="text;html=1;align=center;verticalAlign=middle;resizable=0;points=[];autosize=1;" parent="1" vertex="1">
          <mxGeometry x="530" y="1950" width="220" height="20" as="geometry" />
        </mxCell>
        <mxCell id="pfTwy-6_xwasAA1-WFlj-56" value="该应用建立索引阶段成功" style="text;html=1;align=center;verticalAlign=middle;resizable=0;points=[];autosize=1;" parent="1" vertex="1">
          <mxGeometry x="345" y="2040" width="150" height="20" as="geometry" />
        </mxCell>
        <mxCell id="pfTwy-6_xwasAA1-WFlj-62" value="&lt;font color=&quot;#ff0000&quot;&gt;用户点击启动增量&lt;/font&gt;" style="text;html=1;align=center;verticalAlign=middle;resizable=0;points=[];autosize=1;" parent="1" vertex="1">
          <mxGeometry x="675" y="1810" width="110" height="20" as="geometry" />
        </mxCell>
        <mxCell id="pfTwy-6_xwasAA1-WFlj-66" value="&lt;font color=&quot;#ff0000&quot;&gt;用户点击重建索引&lt;/font&gt;" style="text;html=1;align=center;verticalAlign=middle;resizable=0;points=[];autosize=1;" parent="1" vertex="1">
          <mxGeometry x="880" y="590" width="110" height="20" as="geometry" />
        </mxCell>
        <mxCell id="pfTwy-6_xwasAA1-WFlj-67" value="&lt;font color=&quot;#ff0000&quot;&gt;用户点击重建索引&lt;/font&gt;" style="text;html=1;align=center;verticalAlign=middle;resizable=0;points=[];autosize=1;" parent="1" vertex="1">
          <mxGeometry x="835" y="490" width="110" height="20" as="geometry" />
        </mxCell>
        <mxCell id="pfTwy-6_xwasAA1-WFlj-68" value="&lt;font color=&quot;#ff0000&quot;&gt;用户点击重建索引&lt;/font&gt;" style="text;html=1;align=center;verticalAlign=middle;resizable=0;points=[];autosize=1;" parent="1" vertex="1">
          <mxGeometry x="825" y="840" width="110" height="20" as="geometry" />
        </mxCell>
        <mxCell id="pfTwy-6_xwasAA1-WFlj-70" value="&lt;font color=&quot;#ff0000&quot;&gt;用户点击重建索引&lt;/font&gt;" style="text;html=1;align=center;verticalAlign=middle;resizable=0;points=[];autosize=1;" parent="1" vertex="1">
          <mxGeometry x="215" y="1180" width="110" height="20" as="geometry" />
        </mxCell>
        <mxCell id="pfTwy-6_xwasAA1-WFlj-72" value="&lt;font color=&quot;#ff0000&quot;&gt;用户点击重建索引&lt;/font&gt;" style="text;html=1;align=center;verticalAlign=middle;resizable=0;points=[];autosize=1;" parent="1" vertex="1">
          <mxGeometry x="835" y="1340" width="110" height="20" as="geometry" />
        </mxCell>
        <mxCell id="pfTwy-6_xwasAA1-WFlj-74" value="&lt;font color=&quot;#ff0000&quot;&gt;用户点击重建索引&lt;/font&gt;" style="text;html=1;align=center;verticalAlign=middle;resizable=0;points=[];autosize=1;" parent="1" vertex="1">
          <mxGeometry x="145" y="320" width="110" height="20" as="geometry" />
        </mxCell>
        <mxCell id="pfTwy-6_xwasAA1-WFlj-76" value="&lt;font color=&quot;#ff0000&quot;&gt;用户点击重建索引&lt;/font&gt;" style="text;html=1;align=center;verticalAlign=middle;resizable=0;points=[];autosize=1;" parent="1" vertex="1">
          <mxGeometry x="165" y="1940" width="110" height="20" as="geometry" />
        </mxCell>
        <mxCell id="pfTwy-6_xwasAA1-WFlj-78" value="&lt;font color=&quot;#ff0000&quot;&gt;用户点击重建索引&lt;/font&gt;" style="text;html=1;align=center;verticalAlign=middle;resizable=0;points=[];autosize=1;" parent="1" vertex="1">
          <mxGeometry x="240" y="1440" width="110" height="20" as="geometry" />
        </mxCell>
        <mxCell id="pfTwy-6_xwasAA1-WFlj-80" value="&lt;font color=&quot;#ff0000&quot;&gt;用户点击激活,&lt;br&gt;&lt;/font&gt;执行操作:上传solr配置文件,创建collection失败&lt;font color=&quot;#ff0000&quot;&gt;&lt;br&gt;&lt;/font&gt;" style="text;html=1;align=center;verticalAlign=middle;resizable=0;points=[];autosize=1;" parent="1" vertex="1">
          <mxGeometry x="815" y="-75" width="260" height="30" as="geometry" />
        </mxCell>
        <mxCell id="pfTwy-6_xwasAA1-WFlj-84" value="&lt;font color=&quot;#ff0000&quot;&gt;用户点击激活,&lt;br&gt;&lt;/font&gt;执行操作:上传solr配置文件,创建collection成功" style="text;html=1;align=center;verticalAlign=middle;resizable=0;points=[];autosize=1;" parent="1" vertex="1">
          <mxGeometry x="770" y="105" width="260" height="30" as="geometry" />
        </mxCell>
        <mxCell id="ouW_fzpy-MnYri31NkzG-7" style="edgeStyle=orthogonalEdgeStyle;rounded=0;orthogonalLoop=1;jettySize=auto;html=1;entryX=1;entryY=0.5;entryDx=0;entryDy=0;" edge="1" parent="1" source="ouW_fzpy-MnYri31NkzG-1" target="ouW_fzpy-MnYri31NkzG-8">
          <mxGeometry relative="1" as="geometry">
            <mxPoint x="240" y="-20" as="targetPoint" />
          </mxGeometry>
        </mxCell>
        <mxCell id="ouW_fzpy-MnYri31NkzG-1" value="是否dts?" style="rhombus;whiteSpace=wrap;html=1;" vertex="1" parent="1">
          <mxGeometry x="389" y="-140" width="80" height="80" as="geometry" />
        </mxCell>
        <mxCell id="ouW_fzpy-MnYri31NkzG-2" value="否" style="text;html=1;align=center;verticalAlign=middle;resizable=0;points=[];autosize=1;" vertex="1" parent="1">
          <mxGeometry x="505" y="-730" width="30" height="20" as="geometry" />
        </mxCell>
        <mxCell id="ouW_fzpy-MnYri31NkzG-3" value="是" style="rounded=0;whiteSpace=wrap;html=1;" vertex="1" parent="1">
          <mxGeometry x="325" y="-130" width="20" height="20" as="geometry" />
        </mxCell>
        <mxCell id="ouW_fzpy-MnYri31NkzG-4" value="否" style="rounded=0;whiteSpace=wrap;html=1;" vertex="1" parent="1">
          <mxGeometry x="445" y="-50" width="20" height="20" as="geometry" />
        </mxCell>
        <mxCell id="ouW_fzpy-MnYri31NkzG-16" style="edgeStyle=orthogonalEdgeStyle;rounded=0;orthogonalLoop=1;jettySize=auto;html=1;entryX=0.5;entryY=0;entryDx=0;entryDy=0;" edge="1" parent="1" source="ouW_fzpy-MnYri31NkzG-8">
          <mxGeometry relative="1" as="geometry">
            <mxPoint x="-5" y="-5" as="targetPoint" />
          </mxGeometry>
        </mxCell>
        <mxCell id="ouW_fzpy-MnYri31NkzG-8" value="部署增量dts中(S_dts_delta_deploying)" style="html=1;" vertex="1" parent="1">
          <mxGeometry x="-60" y="-125" width="110" height="50" as="geometry" />
        </mxCell>
        <mxCell id="ouW_fzpy-MnYri31NkzG-9" value="激活中(S_activating)" style="html=1;" vertex="1" parent="1">
          <mxGeometry x="375" y="-300" width="110" height="50" as="geometry" />
        </mxCell>
        <mxCell id="ouW_fzpy-MnYri31NkzG-13" value="&lt;font color=&quot;#ff0000&quot;&gt;E-activate&lt;/font&gt;" style="text;html=1;align=center;verticalAlign=middle;resizable=0;points=[];autosize=1;" vertex="1" parent="1">
          <mxGeometry x="495" y="-380" width="70" height="20" as="geometry" />
        </mxCell>
        <mxCell id="ouW_fzpy-MnYri31NkzG-21" value="" style="edgeStyle=orthogonalEdgeStyle;rounded=0;orthogonalLoop=1;jettySize=auto;html=1;" edge="1" parent="1" source="ouW_fzpy-MnYri31NkzG-19" target="ouW_fzpy-MnYri31NkzG-20">
          <mxGeometry relative="1" as="geometry" />
        </mxCell>
        <mxCell id="ouW_fzpy-MnYri31NkzG-24" value="" style="edgeStyle=orthogonalEdgeStyle;rounded=0;orthogonalLoop=1;jettySize=auto;html=1;" edge="1" parent="1" source="ouW_fzpy-MnYri31NkzG-19" target="ouW_fzpy-MnYri31NkzG-23">
          <mxGeometry relative="1" as="geometry" />
        </mxCell>
        <mxCell id="ouW_fzpy-MnYri31NkzG-19" value="是否成功?" style="rhombus;whiteSpace=wrap;html=1;" vertex="1" parent="1">
          <mxGeometry x="-45" y="-5" width="80" height="80" as="geometry" />
        </mxCell>
        <mxCell id="ouW_fzpy-MnYri31NkzG-20" value="&lt;span&gt;增量dts部署失败(S_dts_delta_deployed_success)&lt;/span&gt;" style="whiteSpace=wrap;html=1;" vertex="1" parent="1">
          <mxGeometry x="-225" y="5" width="120" height="60" as="geometry" />
        </mxCell>
        <mxCell id="ouW_fzpy-MnYri31NkzG-22" value="是" style="rounded=0;whiteSpace=wrap;html=1;" vertex="1" parent="1">
          <mxGeometry x="-80" y="5" width="20" height="20" as="geometry" />
        </mxCell>
        <mxCell id="ouW_fzpy-MnYri31NkzG-23" value="增量dts部署失败(S_dts_delta_deployed_fail)" style="whiteSpace=wrap;html=1;" vertex="1" parent="1">
          <mxGeometry x="95" y="5" width="120" height="60" as="geometry" />
        </mxCell>
        <mxCell id="ouW_fzpy-MnYri31NkzG-25" value="否" style="rounded=0;whiteSpace=wrap;html=1;" vertex="1" parent="1">
          <mxGeometry x="50" y="5" width="20" height="20" as="geometry" />
        </mxCell>
      </root>
    </mxGraphModel>
  </diagram>
</mxfile>
